# xmcd
#
# Track frame offsets: 
#        150
#        16874
#        31550
#        55033
#        73378
#        88581
#        103817
#        123999
#        141048
#        160391
#        176693
#        191923
#
# Disc length: 2858 seconds
#
# Revision: 0
# Processed by: cddbd v1.5.1PL0 Copyright (c) Steve Scherf et al.
# Submitted via: ExactAudioCopy v0.95a4
#
DISCID=a10b280c
DTITLE=Kira Small - Wanderin' Star
DYEAR=2003
DGENRE=Country
TTITLE0=Wanderin' Star
TTITLE1=I'll Make It Right
TTITLE2=Goodnight
TTITLE3=Kitchen Knife
TTITLE4=Someday Isle
TTITLE5=Old Devil Moon
TTITLE6=I'm Not the One
TTITLE7=Black Coffee
TTITLE8=Alone Down Here Again
TTITLE9=Miss Celie's Blues
TTITLE10=I'd Have to Be Crazy
TTITLE11=Break It to Me Gently
EXTD=
EXTT0=
EXTT1=
EXTT2=
EXTT3=
EXTT4=
EXTT5=
EXTT6=
EXTT7=
EXTT8=
EXTT9=
EXTT10=
EXTT11=
PLAYORDER=
